<svg xmlns="http://www.w3.org/2000/svg" xmlns:xlink="http://www.w3.org/1999/xlink" width="2000" zoomAndPan="magnify" viewBox="0 0 1500 1499.999933" height="2000" preserveAspectRatio="xMidYMid meet" version="1.0"><defs><style>.f{fill:#1b4d3e}@media(prefers-color-scheme:dark){.f{fill:#c9a84c}}</style><clipPath id="da8f1968b8"><path d="M 75 136.640625 L 1425 136.640625 L 1425 1362 L 75 1362 Z M 75 136.640625 " clip-rule="nonzero"/></clipPath><clipPath id="da2199b7a7"><path d="M 411.488281 376 L 1087.875 376 L 1087.875 1124 L 411.488281 1124 Z M 411.488281 376 " clip-rule="nonzero"/></clipPath><clipPath id="99134e56ce"><path d="M 431.089844 376.117188 L 1068.273438 376.117188 L 1087.875 630.378906 L 1059.328125 630.378906 C 1042.007812 545.308594 1018.789062 486.308594 990.050781 453.574219 C 961.121094 421.03125 923.441406 404.664062 876.429688 404.664062 L 815.722656 404.664062 L 815.722656 1095.511719 L 949.511719 1095.511719 L 949.511719 1123.871094 L 549.847656 1123.871094 L 549.847656 1095.511719 L 683.640625 1095.511719 L 683.640625 404.664062 L 622.929688 404.664062 C 575.921875 404.664062 538.238281 421.03125 509.3125 453.574219 C 480.574219 486.308594 457.355469 545.308594 440.035156 630.378906 L 411.488281 630.378906 Z M 431.089844 376.117188 " clip-rule="nonzero"/></clipPath><clipPath id="681e0a296a"><path d="M 0.488281 0.078125 L 676.875 0.078125 L 676.875 747.917969 L 0.488281 747.917969 Z M 0.488281 0.078125 " clip-rule="nonzero"/></clipPath><clipPath id="eca9719ac7"><path d="M 20.089844 0.117188 L 657.273438 0.117188 L 676.875 254.378906 L 648.328125 254.378906 C 631.007812 169.308594 607.789062 110.308594 579.050781 77.574219 C 550.121094 45.03125 512.441406 28.664062 465.429688 28.664062 L 404.722656 28.664062 L 404.722656 719.511719 L 538.511719 719.511719 L 538.511719 747.871094 L 138.847656 747.871094 L 138.847656 719.511719 L 272.640625 719.511719 L 272.640625 28.664062 L 211.929688 28.664062 C 164.921875 28.664062 127.238281 45.03125 98.3125 77.574219 C 69.574219 110.308594 46.355469 169.308594 29.035156 254.378906 L 0.488281 254.378906 Z M 20.089844 0.117188 " clip-rule="nonzero"/></clipPath><clipPath id="bfd5d01b1e"><rect x="0" width="677" y="0" height="748"/></clipPath></defs><g clip-path="url(#da8f1968b8)"><path class="f" d="M 267.988281 1315.117188 L 267.988281 183.398438 L 75.003906 183.398438 L 75.003906 136.640625 L 579.433594 136.640625 L 579.433594 183.398438 L 485.28125 183.398438 L 485.28125 351.128906 L 408.757812 351.128906 L 385.421875 653.75 L 459.902344 653.75 L 463.851562 634.359375 C 468.675781 610.664062 475.609375 580.632812 485.28125 551.5 L 485.28125 706.546875 L 640.753906 706.546875 L 640.753906 753.316406 L 485.28125 753.316406 L 485.28125 1315.117188 L 575.164062 1315.117188 L 575.164062 1361.574219 L 75.003906 1361.574219 L 75.003906 1315.117188 Z M 858.570312 706.546875 L 1014.039062 706.546875 L 1014.039062 551.5 C 1023.722656 580.632812 1030.652344 610.664062 1035.480469 634.359375 L 1039.421875 653.75 L 1113.902344 653.75 L 1090.574219 351.128906 L 1014.039062 351.128906 L 1014.039062 183.398438 L 914.019531 183.398438 L 914.019531 136.640625 L 1424.328125 136.640625 L 1424.328125 183.398438 L 1231.34375 183.398438 L 1231.34375 1315.117188 L 1424.328125 1315.117188 L 1424.328125 1361.574219 L 912.949219 1361.574219 L 912.949219 1315.117188 L 1014.039062 1315.117188 L 1014.039062 753.316406 L 858.570312 753.316406 Z M 858.570312 706.546875 " fill-opacity="1" fill-rule="nonzero"/></g><g clip-path="url(#da2199b7a7)"><g clip-path="url(#99134e56ce)"><g transform="matrix(1, 0, 0, 1, 411, 376)"><g clip-path="url(#bfd5d01b1e)"><g clip-path="url(#681e0a296a)"><g clip-path="url(#eca9719ac7)"><path class="f" d="M 0.488281 0.117188 L 676.875 0.117188 L 676.875 747.167969 L 0.488281 747.167969 Z M 0.488281 0.117188 " fill-opacity="1" fill-rule="nonzero"/></g></g></g></g></g></g></svg>
