<svg xmlns="http://www.w3.org/2000/svg" xmlns:xlink="http://www.w3.org/1999/xlink" width="640" zoomAndPan="magnify" viewBox="0 0 480 149.999998" height="200" preserveAspectRatio="xMidYMid meet" version="1.0"><defs><g/><clipPath id="ad9cd87766"><rect x="0" width="452" y="0" height="82"/></clipPath></defs><g transform="matrix(1, 0, 0, 1, 14, 34)"><g clip-path="url(#ad9cd87766)"><g fill="#c9a84c" fill-opacity="1"><g transform="translate(1.000003, 65.981235)"><g><path d="M 27.3125 -1.203125 L 27.3125 -49.625 L 33.8125 -49.625 C 36.132812 -49.625 38.164062 -48.4375 39.90625 -46.0625 C 41.644531 -43.695312 42.789062 -40.472656 43.34375 -36.390625 L 44.9375 -36.390625 L 43.8125 -49.5625 C 43.757812 -50.414062 43.253906 -50.84375 42.296875 -50.84375 L 5 -50.84375 C 4.039062 -50.84375 3.535156 -50.414062 3.484375 -49.5625 L 2.34375 -36.390625 L 3.9375 -36.390625 C 4.488281 -40.472656 5.632812 -43.695312 7.375 -46.0625 C 9.113281 -48.4375 11.144531 -49.625 13.46875 -49.625 L 19.96875 -49.625 L 19.96875 -1.203125 L 13.46875 -1.203125 L 13.46875 0 L 33.8125 0 L 33.8125 -1.203125 Z M 27.3125 -1.203125 "/></g></g></g><g fill="#c9a84c" fill-opacity="1"><g transform="translate(47.826938, 65.981235)"><g><path d="M 22.84375 -50.84375 L 2.5 -50.84375 L 2.5 -49.625 L 9 -49.625 L 9 -1.203125 L 2.5 -1.203125 L 2.5 0 L 22.84375 0 L 22.84375 -1.203125 L 16.34375 -1.203125 L 16.34375 -26.40625 L 36.390625 -26.40625 L 36.390625 -1.203125 L 29.890625 -1.203125 L 29.890625 0 L 50.234375 0 L 50.234375 -1.203125 L 43.734375 -1.203125 L 43.734375 -49.625 L 50.234375 -49.625 L 50.234375 -50.84375 L 29.890625 -50.84375 L 29.890625 -49.625 L 36.390625 -49.625 L 36.390625 -27.6875 L 16.34375 -27.6875 L 16.34375 -49.625 L 22.84375 -49.625 Z M 22.84375 -50.84375 "/></g></g></g><g fill="#c9a84c" fill-opacity="1"><g transform="translate(99.646723, 65.981235)"><g><path d="M 16.34375 -26.171875 L 22.3125 -26.171875 C 23.425781 -26.171875 24.3125 -26.003906 24.96875 -25.671875 C 25.625 -25.347656 26.140625 -24.882812 26.515625 -24.28125 C 26.890625 -23.675781 27.175781 -22.945312 27.375 -22.09375 C 27.582031 -21.238281 27.789062 -20.28125 28 -19.21875 C 28.144531 -18.507812 28.34375 -18.15625 28.59375 -18.15625 C 28.894531 -18.15625 29.046875 -18.484375 29.046875 -19.140625 L 29.046875 -34.5 C 29.046875 -35.101562 28.894531 -35.40625 28.59375 -35.40625 C 28.34375 -35.40625 28.144531 -35.050781 28 -34.34375 C 27.789062 -33.289062 27.582031 -32.332031 27.375 -31.46875 C 27.175781 -30.613281 26.890625 -29.882812 26.515625 -29.28125 C 26.140625 -28.675781 25.625 -28.207031 24.96875 -27.875 C 24.3125 -27.550781 23.425781 -27.390625 22.3125 -27.390625 L 16.34375 -27.390625 L 16.34375 -49.625 L 27.84375 -49.625 C 29.550781 -49.625 30.984375 -49.207031 32.140625 -48.375 C 33.304688 -47.550781 34.242188 -46.519531 34.953125 -45.28125 C 35.660156 -44.039062 36.175781 -42.726562 36.5 -41.34375 C 36.832031 -39.957031 37.023438 -38.707031 37.078125 -37.59375 C 37.078125 -36.894531 37.273438 -36.546875 37.671875 -36.546875 C 38.023438 -36.546875 38.203125 -36.875 38.203125 -37.53125 L 38.203125 -49.03125 C 38.203125 -50.238281 37.570312 -50.84375 36.3125 -50.84375 L 2.5 -50.84375 L 2.5 -49.625 L 9 -49.625 L 9 -1.203125 L 2.578125 -1.203125 L 2.578125 0 L 38.125 0 C 39.59375 0 40.328125 -0.804688 40.328125 -2.421875 L 40.328125 -13.765625 C 40.328125 -14.972656 40.125 -15.578125 39.71875 -15.578125 C 39.363281 -15.578125 39.085938 -15.050781 38.890625 -14 C 38.484375 -12.082031 38.050781 -10.34375 37.59375 -8.78125 C 37.144531 -7.21875 36.539062 -5.867188 35.78125 -4.734375 C 35.03125 -3.597656 34.070312 -2.722656 32.90625 -2.109375 C 31.75 -1.503906 30.285156 -1.203125 28.515625 -1.203125 L 16.34375 -1.203125 Z M 16.34375 -26.171875 "/></g></g></g><g fill="#c9a84c" fill-opacity="1"><g transform="translate(143.069427, 65.981235)"><g/></g></g><g fill="#c9a84c" fill-opacity="1"><g transform="translate(163.419107, 65.981235)"><g><path d="M 22.84375 -50.84375 L 2.5 -50.84375 L 2.5 -49.625 L 9 -49.625 L 9 -1.203125 L 2.5 -1.203125 L 2.5 0 L 22.84375 0 L 22.84375 -1.203125 L 16.34375 -1.203125 L 16.34375 -26.40625 L 36.390625 -26.40625 L 36.390625 -1.203125 L 29.890625 -1.203125 L 29.890625 0 L 50.234375 0 L 50.234375 -1.203125 L 43.734375 -1.203125 L 43.734375 -49.625 L 50.234375 -49.625 L 50.234375 -50.84375 L 29.890625 -50.84375 L 29.890625 -49.625 L 36.390625 -49.625 L 36.390625 -27.6875 L 16.34375 -27.6875 L 16.34375 -49.625 L 22.84375 -49.625 Z M 22.84375 -50.84375 "/></g></g></g><g fill="#c9a84c" fill-opacity="1"><g transform="translate(215.238878, 65.981235)"><g><path d="M 22.015625 -50.84375 L 1.671875 -50.84375 L 1.671875 -49.625 L 8.171875 -49.625 L 8.171875 -12.640625 C 8.171875 -9.960938 8.6875 -7.726562 9.71875 -5.9375 C 10.75 -4.144531 12.082031 -2.691406 13.71875 -1.578125 C 15.363281 -0.472656 17.195312 0.300781 19.21875 0.75 C 21.238281 1.207031 23.226562 1.4375 25.1875 1.4375 C 29.976562 1.4375 33.710938 0.261719 36.390625 -2.078125 C 39.066406 -4.421875 40.40625 -7.941406 40.40625 -12.640625 L 40.40625 -49.625 L 46.90625 -49.625 L 46.90625 -50.84375 L 32.6875 -50.84375 L 32.6875 -49.625 L 39.1875 -49.625 L 39.1875 -12.640625 C 39.1875 -10.617188 38.867188 -8.8125 38.234375 -7.21875 C 37.609375 -5.632812 36.738281 -4.300781 35.625 -3.21875 C 34.519531 -2.132812 33.222656 -1.3125 31.734375 -0.75 C 30.242188 -0.195312 28.644531 0.078125 26.9375 0.078125 C 23.40625 0.078125 20.617188 -1.015625 18.578125 -3.203125 C 16.535156 -5.398438 15.515625 -8.546875 15.515625 -12.640625 L 15.515625 -49.625 L 22.015625 -49.625 Z M 22.015625 -50.84375 "/></g></g></g><g fill="#c9a84c" fill-opacity="1"><g transform="translate(263.503145, 65.981235)"><g><path d="M 2.046875 -1.203125 L 2.046875 0 L 16.265625 0 L 16.265625 -1.203125 L 9.765625 -1.203125 L 9.765625 -47.4375 L 39.03125 0.609375 L 41.609375 0.609375 L 41.609375 -49.625 L 48.125 -49.625 L 48.125 -50.84375 L 33.890625 -50.84375 L 33.890625 -49.625 L 40.40625 -49.625 L 40.40625 -12.484375 L 16.953125 -50.84375 L 2.046875 -50.84375 L 2.046875 -49.625 L 8.546875 -49.625 L 8.546875 -1.203125 Z M 2.046875 -1.203125 "/></g></g></g><g fill="#c9a84c" fill-opacity="1"><g transform="translate(313.204768, 65.981235)"><g><path d="M 27.3125 -1.203125 L 27.3125 -49.625 L 33.8125 -49.625 C 36.132812 -49.625 38.164062 -48.4375 39.90625 -46.0625 C 41.644531 -43.695312 42.789062 -40.472656 43.34375 -36.390625 L 44.9375 -36.390625 L 43.8125 -49.5625 C 43.757812 -50.414062 43.253906 -50.84375 42.296875 -50.84375 L 5 -50.84375 C 4.039062 -50.84375 3.535156 -50.414062 3.484375 -49.5625 L 2.34375 -36.390625 L 3.9375 -36.390625 C 4.488281 -40.472656 5.632812 -43.695312 7.375 -46.0625 C 9.113281 -48.4375 11.144531 -49.625 13.46875 -49.625 L 19.96875 -49.625 L 19.96875 -1.203125 L 13.46875 -1.203125 L 13.46875 0 L 33.8125 0 L 33.8125 -1.203125 Z M 27.3125 -1.203125 "/></g></g></g><g fill="#c9a84c" fill-opacity="1"><g transform="translate(360.03171, 65.981235)"><g><path d="M 16.34375 -26.171875 L 22.3125 -26.171875 C 23.425781 -26.171875 24.3125 -26.003906 24.96875 -25.671875 C 25.625 -25.347656 26.140625 -24.882812 26.515625 -24.28125 C 26.890625 -23.675781 27.175781 -22.945312 27.375 -22.09375 C 27.582031 -21.238281 27.789062 -20.28125 28 -19.21875 C 28.144531 -18.507812 28.34375 -18.15625 28.59375 -18.15625 C 28.894531 -18.15625 29.046875 -18.484375 29.046875 -19.140625 L 29.046875 -34.5 C 29.046875 -35.101562 28.894531 -35.40625 28.59375 -35.40625 C 28.34375 -35.40625 28.144531 -35.050781 28 -34.34375 C 27.789062 -33.289062 27.582031 -32.332031 27.375 -31.46875 C 27.175781 -30.613281 26.890625 -29.882812 26.515625 -29.28125 C 26.140625 -28.675781 25.625 -28.207031 24.96875 -27.875 C 24.3125 -27.550781 23.425781 -27.390625 22.3125 -27.390625 L 16.34375 -27.390625 L 16.34375 -49.625 L 27.84375 -49.625 C 29.550781 -49.625 30.984375 -49.207031 32.140625 -48.375 C 33.304688 -47.550781 34.242188 -46.519531 34.953125 -45.28125 C 35.660156 -44.039062 36.175781 -42.726562 36.5 -41.34375 C 36.832031 -39.957031 37.023438 -38.707031 37.078125 -37.59375 C 37.078125 -36.894531 37.273438 -36.546875 37.671875 -36.546875 C 38.023438 -36.546875 38.203125 -36.875 38.203125 -37.53125 L 38.203125 -49.03125 C 38.203125 -50.238281 37.570312 -50.84375 36.3125 -50.84375 L 2.5 -50.84375 L 2.5 -49.625 L 9 -49.625 L 9 -1.203125 L 2.578125 -1.203125 L 2.578125 0 L 38.125 0 C 39.59375 0 40.328125 -0.804688 40.328125 -2.421875 L 40.328125 -13.765625 C 40.328125 -14.972656 40.125 -15.578125 39.71875 -15.578125 C 39.363281 -15.578125 39.085938 -15.050781 38.890625 -14 C 38.484375 -12.082031 38.050781 -10.34375 37.59375 -8.78125 C 37.144531 -7.21875 36.539062 -5.867188 35.78125 -4.734375 C 35.03125 -3.597656 34.070312 -2.722656 32.90625 -2.109375 C 31.75 -1.503906 30.285156 -1.203125 28.515625 -1.203125 L 16.34375 -1.203125 Z M 16.34375 -26.171875 "/></g></g></g><g fill="#c9a84c" fill-opacity="1"><g transform="translate(403.454421, 65.981235)"><g><path d="M 39.953125 -3.25 C 39.796875 -3.757812 39.679688 -4.46875 39.609375 -5.375 C 39.535156 -6.28125 39.484375 -7.257812 39.453125 -8.3125 C 39.429688 -9.375 39.40625 -10.457031 39.375 -11.5625 C 39.351562 -12.675781 39.265625 -13.738281 39.109375 -14.75 C 38.804688 -16.769531 38.300781 -18.4375 37.59375 -19.75 C 36.894531 -21.0625 36.039062 -22.128906 35.03125 -22.953125 C 34.019531 -23.785156 32.859375 -24.441406 31.546875 -24.921875 C 30.234375 -25.398438 28.820312 -25.84375 27.3125 -26.25 C 31.25 -26.957031 34.273438 -28.359375 36.390625 -30.453125 C 38.503906 -32.546875 39.5625 -35.179688 39.5625 -38.359375 C 39.5625 -40.328125 39.144531 -42.09375 38.3125 -43.65625 C 37.488281 -45.21875 36.367188 -46.523438 34.953125 -47.578125 C 33.535156 -48.640625 31.859375 -49.445312 29.921875 -50 C 27.984375 -50.5625 25.925781 -50.84375 23.75 -50.84375 L 2.421875 -50.84375 L 2.421875 -49.625 L 8.921875 -49.625 L 8.921875 -1.203125 L 2.421875 -1.203125 L 2.421875 0 L 22.765625 0 L 22.765625 -1.203125 L 16.265625 -1.203125 L 16.265625 -25.953125 L 22.546875 -25.953125 C 23.347656 -25.953125 24.203125 -25.8125 25.109375 -25.53125 C 26.023438 -25.257812 26.875 -24.726562 27.65625 -23.9375 C 28.4375 -23.15625 29.113281 -22.070312 29.6875 -20.6875 C 30.269531 -19.300781 30.6875 -17.523438 30.9375 -15.359375 C 31.09375 -14.046875 31.179688 -12.707031 31.203125 -11.34375 C 31.234375 -9.988281 31.3125 -8.675781 31.4375 -7.40625 C 31.5625 -6.144531 31.785156 -4.984375 32.109375 -3.921875 C 32.441406 -2.867188 32.960938 -1.960938 33.671875 -1.203125 C 34.328125 -0.503906 35.09375 -0.0273438 35.96875 0.21875 C 36.851562 0.476562 37.800781 0.609375 38.8125 0.609375 C 39.664062 0.609375 40.519531 0.519531 41.375 0.34375 C 42.238281 0.164062 43.035156 -0.046875 43.765625 -0.296875 C 44.492188 -0.554688 45.125 -0.820312 45.65625 -1.09375 C 46.1875 -1.375 46.578125 -1.640625 46.828125 -1.890625 C 46.984375 -2.046875 47.0625 -2.195312 47.0625 -2.34375 C 47.0625 -2.5 46.984375 -2.578125 46.828125 -2.578125 C 46.734375 -2.578125 46.582031 -2.523438 46.375 -2.421875 C 45.363281 -1.710938 44.226562 -1.359375 42.96875 -1.359375 C 41.40625 -1.359375 40.398438 -1.988281 39.953125 -3.25 Z M 16.265625 -27.15625 L 16.265625 -49.625 L 23.75 -49.625 C 29.5 -49.625 32.375 -46.320312 32.375 -39.71875 L 32.375 -37 C 32.375 -30.4375 29.5 -27.15625 23.75 -27.15625 Z M 16.265625 -27.15625 "/></g></g></g></g></g></svg>